<svg width="48" height="49" viewBox="0 0 48 49" fill="none" xmlns="http://www.w3.org/2000/svg">
<path d="M29.4615 18.8144C28.1231 18.0345 26.7846 17.2684 25.4189 16.5433C24.4902 16.0507 23.5615 15.5582 22.6328 15.093C22.1001 14.8194 21.5539 14.5594 21.0076 14.2858C20.1198 13.8617 19.0955 14.4773 19.0682 15.4624C18.9726 18.5818 18.9999 21.7012 19.1092 24.8206C19.1502 25.8193 20.2154 26.435 21.0895 25.9698C22.1411 25.4226 23.1791 24.8479 24.2034 24.2733C25.4599 23.5619 26.7027 22.8368 27.9319 22.098C28.4508 21.7833 28.9698 21.4686 29.4751 21.1539C30.3492 20.593 30.3355 19.3206 29.4615 18.8144Z" fill="url(#paint0_linear_302_21765)"/>
<path d="M16.3509 13.3145C13.1687 16.6665 9.97292 20.4152 6.64052 24.7112C5.95765 25.5868 5.26113 26.5035 4.49631 27.5159C3.6359 28.6515 2.8028 29.7734 2.02433 30.8542C1.99701 30.8953 1.9697 30.9363 1.94238 30.9774C7.02293 30.1291 11.8713 28.843 16.3919 27.1465C16.0778 22.3306 16.0641 17.6926 16.3509 13.3145Z" fill="url(#paint1_linear_302_21765)"/>
<path d="M39.1036 12.6169C39.0216 12.398 38.9397 12.1791 38.8578 11.9739C37.6286 8.81345 36.3448 5.91297 34.9381 3.12194C34.3781 2.00005 33.5724 1.26125 32.63 0.960257C32.5754 0.946576 32.5344 0.932892 32.4934 0.91921L32.3159 0.878167C31.5647 0.727671 30.7589 0.864484 29.9805 1.26125C29.68 1.41175 29.3932 1.5896 29.1064 1.80851C27.6587 2.91671 26.1837 4.13437 24.7224 5.40675C24.1897 5.87192 23.7117 6.29605 23.261 6.7065C22.6328 7.28112 22.0592 7.80102 21.5265 8.32091C20.9666 8.85449 20.4066 9.38807 19.8604 9.93533C22.0592 10.9888 27.1261 13.6293 32.8895 18.0074C35.143 16.3383 37.2325 14.5186 39.1036 12.6169Z" fill="url(#paint2_linear_302_21765)"/>
<path d="M47.0261 45.165C47.0261 45.2334 47.0261 45.3018 47.0261 45.3702C47.0261 45.4112 47.0261 45.4523 47.0124 45.4933C47.0124 45.5344 46.9988 45.5754 46.9988 45.6165C46.9032 46.2458 46.6437 46.8204 46.2476 47.2856C46.1383 47.4224 46.0018 47.5592 45.8652 47.6687C45.5511 47.9423 45.1687 48.1475 44.759 48.2844C44.4175 48.3801 44.0624 48.4349 43.6664 48.4485H43.6527C43.4615 48.4485 43.2566 48.4485 43.0654 48.4349C41.8772 48.3528 40.7027 48.2433 39.5418 48.1339C37.4796 47.9286 35.3627 47.6687 33.2731 47.354C31.2928 47.053 29.2715 46.711 27.2775 46.3279C25.8162 46.0406 24.3685 45.7396 22.9754 45.4249C22.3062 45.2744 21.7326 45.1376 21.2136 45.0145C20.5035 41.3342 19.6294 35.8615 19.165 29.5817C24.1363 27.6116 28.7389 25.1352 32.8634 22.2211C37.5479 25.9014 41.6041 29.9374 44.9228 34.2471L44.9365 34.2882C45.1823 35.369 45.4282 36.5183 45.7286 37.9138C46.0291 39.3093 46.3022 40.6911 46.5617 42.0182C46.6983 42.6886 46.8212 43.3727 46.9578 44.0431C47.0124 44.3578 47.0534 44.6724 47.0534 44.9734C47.0124 45.0418 47.0261 45.0966 47.0261 45.165Z" fill="url(#paint3_linear_302_21765)"/>
<path d="M0.589881 34.3428C0.0845585 35.2321 -0.106644 36.1077 0.0572446 36.9012V36.9149C0.070902 36.9559 0.0845589 36.997 0.0845589 37.0517L0.0982151 37.0791C0.0982151 37.1064 0.111873 37.1201 0.111873 37.1475C0.18016 37.3801 0.28942 37.6127 0.425993 37.8316C0.658169 38.2146 0.999603 38.543 1.40932 38.844C1.72344 39.0629 2.06488 39.2544 2.46094 39.4049C5.34265 40.5952 8.38824 41.6897 11.4885 42.6748L11.5158 42.6885C11.6114 42.7159 11.707 42.7432 11.8026 42.7843C13.1274 43.1947 14.4111 43.5778 15.6267 43.9198C16.569 44.1798 17.4977 44.4397 18.4401 44.6723C17.7709 41.0878 16.9924 36.0666 16.5553 30.3615C11.5704 32.1674 6.20306 33.5219 0.589881 34.3428Z" fill="url(#paint4_linear_302_21765)"/>
<path d="M40.5919 15.4906C38.9257 17.1461 37.0819 18.7195 35.1289 20.1971C38.7345 23.0565 41.9712 26.1485 44.7847 29.3911C43.9243 25.957 43.0092 22.7555 42.0259 19.6772C41.6435 18.4732 41.2201 17.2419 40.7831 16.0242C40.7284 15.8463 40.6601 15.6685 40.5919 15.4906Z" fill="url(#paint5_linear_302_21765)"/>
<path d="M44.744 48.3115C44.4162 48.4209 44.0747 48.4756 43.7197 48.4756C43.6923 48.4756 43.6787 48.4756 43.6514 48.4756C44.0474 48.4483 44.4025 48.3936 44.744 48.3115Z" fill="url(#paint6_linear_302_21765)"/>
<defs>
<linearGradient id="paint0_linear_302_21765" x1="27.3455" y1="24.3338" x2="18.306" y2="17.8453" gradientUnits="userSpaceOnUse">
<stop stop-color="#E680B0"/>
<stop offset="1" stop-color="#E8F4F5"/>
</linearGradient>
<linearGradient id="paint1_linear_302_21765" x1="15.1101" y1="26.5845" x2="8.27789" y2="21.5294" gradientUnits="userSpaceOnUse">
<stop stop-color="#9F5EA2"/>
<stop offset="1" stop-color="#5AAFDC"/>
</linearGradient>
<linearGradient id="paint2_linear_302_21765" x1="25.306" y1="3.39473" x2="33.8022" y2="15.9832" gradientUnits="userSpaceOnUse">
<stop stop-color="#BA9ECB"/>
<stop offset="0.9797" stop-color="#B44994"/>
</linearGradient>
<linearGradient id="paint3_linear_302_21765" x1="22.328" y1="24.7025" x2="40.7223" y2="50.2682" gradientUnits="userSpaceOnUse">
<stop stop-color="white"/>
<stop offset="0.0541926" stop-color="#DDF2FB"/>
<stop offset="0.1266" stop-color="#B7E3F7"/>
<stop offset="0.1985" stop-color="#99D8F4"/>
<stop offset="0.2689" stop-color="#83D0F2"/>
<stop offset="0.337" stop-color="#76CBF0"/>
<stop offset="0.4004" stop-color="#72C9F0"/>
<stop offset="0.4866" stop-color="#70C7E0"/>
<stop offset="0.6681" stop-color="#6BC1B6"/>
<stop offset="0.8818" stop-color="#66B87A"/>
</linearGradient>
<linearGradient id="paint4_linear_302_21765" x1="21.6847" y1="39.6038" x2="2.61853" y2="32.2442" gradientUnits="userSpaceOnUse">
<stop stop-color="#14B8E1"/>
<stop offset="1" stop-color="#7BCBEE"/>
</linearGradient>
<linearGradient id="paint5_linear_302_21765" x1="37.987" y1="18.0227" x2="45.182" y2="28.6778" gradientUnits="userSpaceOnUse">
<stop stop-color="#CE6CA0"/>
<stop offset="0.971" stop-color="#EF7D4A"/>
</linearGradient>
<linearGradient id="paint6_linear_302_21765" x1="44.4208" y1="47.9802" x2="44.0119" y2="48.7218" gradientUnits="userSpaceOnUse">
<stop stop-color="white"/>
<stop offset="0.0541926" stop-color="#DDF2FB"/>
<stop offset="0.1266" stop-color="#B7E3F7"/>
<stop offset="0.1985" stop-color="#99D8F4"/>
<stop offset="0.2689" stop-color="#83D0F2"/>
<stop offset="0.337" stop-color="#76CBF0"/>
<stop offset="0.4004" stop-color="#72C9F0"/>
<stop offset="0.4866" stop-color="#70C7E0"/>
<stop offset="0.6681" stop-color="#6BC1B6"/>
<stop offset="0.8818" stop-color="#66B87A"/>
</linearGradient>
</defs>
</svg>
