<svg width="98" height="48" viewBox="0 0 98 48" fill="none" xmlns="http://www.w3.org/2000/svg">
                    <path d="M0.076727 11.999C0.0843981 10.0667 0.744098 8.44763 2.05585 7.14929C3.39061 5.81277 5.07057 5.14832 7.1034 5.14832C9.13622 5.15595 10.8162 5.82804 12.1433 7.1722C13.455 8.48582 14.1071 10.1049 14.0994 12.0372C14.0917 13.9847 13.432 15.6114 12.1203 16.9174C10.7855 18.2386 9.10555 18.8954 7.07272 18.8954C5.03989 18.8878 3.35993 18.2234 2.03283 16.9021C0.721086 15.5809 0.069056 13.9465 0.076727 11.999ZM4.48758 14.672C5.17797 15.3899 6.03712 15.7489 7.08038 15.7565C8.09296 15.7565 8.94445 15.4052 9.65019 14.6873C10.3559 13.9388 10.7088 13.0529 10.7165 12.0372C10.7165 11.0138 10.3636 10.1355 9.66553 9.40229C8.9598 8.68439 8.10831 8.32544 7.09573 8.3178C6.05247 8.3178 5.18564 8.66911 4.49525 9.38701C3.80485 10.0896 3.45965 10.9603 3.45965 12.0142C3.45965 13.0453 3.80486 13.9312 4.48758 14.672Z" fill="#2B2C2A"></path>
                    <path d="M24.5471 5.21589C26.3881 5.22352 27.93 5.88797 29.1573 7.20922C30.3694 8.52284 30.9754 10.1419 30.9754 12.0742C30.9677 13.9911 30.3464 15.6102 29.1113 16.9238C27.8763 18.2451 26.3344 18.9019 24.4933 18.9019C22.8748 18.9019 21.5093 18.2909 20.3893 17.0766L20.374 23.9425L16.9834 23.9349L17.0218 5.53665L20.3893 5.54429L20.3893 7.14812C21.5093 5.84978 22.8978 5.20825 24.5471 5.21589ZM23.9257 15.8088C24.9996 15.8088 25.8741 15.4575 26.5492 14.7396C27.2242 14.0217 27.5618 13.1358 27.5618 12.0895C27.5618 11.0355 27.2319 10.1496 26.5569 9.43166C25.8895 8.71376 25.015 8.35481 23.941 8.34717C22.8824 8.34717 22.0156 8.69849 21.3406 9.4164C20.6655 10.1343 20.328 11.0202 20.328 12.0665C20.328 13.1205 20.6578 14.0064 21.3329 14.7243C22.0003 15.4499 22.8671 15.8088 23.9257 15.8088Z" fill="#2B2C2A"></path>
                    <path d="M42.1676 15.2048L43.1725 17.8626C42.0833 18.5805 40.7945 18.9318 39.2987 18.9318C37.7951 18.9318 36.6522 18.4888 35.885 17.6182C35.1179 16.7475 34.7344 15.4645 34.7421 13.7766L34.7574 8.39233L32.6172 8.3847L32.6249 5.5589L34.7881 5.56653L34.7958 2.03811L38.1634 0.953613L38.1557 5.57418L42.4822 5.58181L42.4745 8.40761L38.148 8.39997L38.1403 13.5704C38.1403 15.1055 38.754 15.8692 39.9891 15.8692C40.6564 15.8692 41.3852 15.6478 42.1676 15.2048Z" fill="#2B2C2A"></path>
                    <path d="M49.5484 2.06207C49.5484 2.65014 49.3489 3.14656 48.9424 3.5437C48.5435 3.94084 48.0448 4.13941 47.4542 4.13941C46.8635 4.13941 46.3649 3.94083 45.966 3.53606C45.5671 3.13892 45.3677 2.6425 45.3677 2.05443C45.3677 1.46636 45.5671 0.977572 45.9737 0.595708C46.3726 0.198569 46.8712 0 47.4619 0C48.0525 0 48.5511 0.198564 48.95 0.603341C49.3489 0.985206 49.5484 1.474 49.5484 2.06207ZM49.1341 5.59814L49.1035 18.635L45.7129 18.6274L45.7435 5.59049L49.1341 5.59814Z" fill="#2B2C2A"></path>
                    <path d="M68.8395 5.28498C70.4121 5.28498 71.6855 5.7814 72.6597 6.75134C73.6646 7.72891 74.1709 9.08072 74.1632 10.822L74.1479 18.6961L70.7573 18.6884L70.7726 11.4406C70.7726 10.4707 70.5425 9.71461 70.0669 9.18764C69.5913 8.66067 68.9623 8.39335 68.1568 8.39335C67.29 8.39335 66.5919 8.67593 66.0626 9.24109C65.5333 9.80625 65.2648 10.57 65.2648 11.5246L65.2495 18.6808L61.8589 18.6732L61.8742 11.4483C61.8742 10.4936 61.6441 9.73752 61.1685 9.19527C60.6929 8.65302 60.0562 8.37809 59.2354 8.37809C58.3992 8.37809 57.7165 8.66066 57.1795 9.23346C56.6426 9.80626 56.3741 10.57 56.3664 11.5323L56.351 18.6655L52.9604 18.6579L52.9911 5.62102L56.305 5.62866L56.2974 7.49216C56.6656 6.8048 57.2102 6.26256 57.939 5.85778C58.66 5.453 59.4425 5.26206 60.294 5.27734C61.1301 5.27734 61.8895 5.48355 62.5876 5.88069C63.2857 6.27783 63.7996 6.85062 64.1371 7.5838C64.6204 6.8659 65.2801 6.30838 66.1086 5.9036C66.9524 5.48355 67.8576 5.28498 68.8395 5.28498Z" fill="#2B2C2A"></path>
                    <path d="M87.6256 7.2403L87.6256 5.6823L90.8474 5.68993L90.8167 18.7268L87.5949 18.7192L87.5949 17.2146C86.4672 18.4213 85.0788 19.0246 83.4065 19.0246C81.5117 19.017 79.9622 18.3602 78.7502 17.0542C77.5381 15.7406 76.9321 14.0986 76.9321 12.1205C76.9398 10.1577 77.5535 8.53864 78.7962 7.27085C80.0312 5.98015 81.5808 5.33862 83.4372 5.34626C85.0864 5.34626 86.4749 5.98015 87.6256 7.2403ZM87.6639 12.1893C87.6639 11.1659 87.3187 10.2799 86.613 9.53149C85.9226 8.79831 85.0558 8.42409 83.9972 8.42409C82.9232 8.42409 82.041 8.79067 81.3506 9.51621C80.6756 10.2494 80.3381 11.1353 80.3381 12.1664C80.3381 13.2203 80.6756 14.1139 81.366 14.8471C82.0564 15.5802 82.9232 15.9545 83.9818 15.9545C85.0404 15.9545 85.9149 15.5955 86.6053 14.8623C87.311 14.1215 87.6639 13.2279 87.6639 12.1893Z" fill="#2B2C2A"></path>
                    <path d="M97.8816 0.567692L97.8432 18.7521L94.4526 18.7444L94.491 0.560059L97.8816 0.567692Z" fill="#2B2C2A"></path>
                    <path d="M10.7471 30.8772L10.7471 29.4414L13.8693 29.449L13.8462 41.1952C13.8386 43.3031 13.1635 44.9604 11.8134 46.1671C10.448 47.389 8.69897 48 6.57409 48C4.31113 47.9924 2.31666 47.3585 0.567662 46.0983L1.89475 43.5628C3.39828 44.5862 4.92481 45.0979 6.48203 45.1055C7.74776 45.1055 8.745 44.7771 9.47375 44.105C10.2025 43.4329 10.5707 42.5699 10.5707 41.5007L10.5707 40.8286C9.55812 41.9436 8.21569 42.5012 6.52806 42.4935C4.60262 42.4859 3.03773 41.852 1.81803 40.5919C0.606009 39.3317 -2.07804e-08 37.7355 -1.6132e-08 35.8033C0.00767104 33.871 0.652042 32.2748 1.93311 30.9994C3.21417 29.724 4.80207 29.0901 6.69682 29.0977C8.32308 29.1054 9.66552 29.6934 10.7471 30.8772ZM3.43663 35.8415C3.43663 36.926 3.77416 37.8119 4.46456 38.4992C5.17029 39.2019 6.02944 39.5532 7.05736 39.5608C8.08528 39.5608 8.95211 39.2171 9.65785 38.5145C10.3482 37.8119 10.6934 36.9336 10.6934 35.8644C10.6934 34.8104 10.3559 33.9398 9.66553 33.2524C8.95979 32.5498 8.10063 32.1985 7.07271 32.1908C6.04479 32.1908 5.17796 32.5345 4.47222 33.2371C3.78183 33.9169 3.43663 34.7875 3.43663 35.8415Z" fill="#2B2C2A"></path>
                    <path d="M20.8799 42.5078L17.4893 42.5002L17.5199 29.4633L20.7648 29.4709L20.7571 31.2199C21.5472 29.8146 22.7516 29.1196 24.3702 29.1196C24.8995 29.1196 25.4288 29.2189 25.9581 29.4098L25.6589 32.6404C25.0836 32.4648 24.562 32.3731 24.1017 32.3731C23.1045 32.3731 22.3297 32.7015 21.7544 33.3583C21.1867 34.0228 20.8952 35.0004 20.8952 36.314L20.8799 42.5078Z" fill="#2B2C2A"></path>
                    <path d="M27.3247 35.986C27.3324 34.0538 27.9921 32.4347 29.3038 31.1363C30.6386 29.7998 32.3186 29.1354 34.3591 29.1354C36.3919 29.143 38.0718 29.8151 39.3989 31.1593C40.7107 32.4729 41.3627 34.092 41.3551 36.0242C41.3474 37.9717 40.6877 39.5985 39.3759 40.9044C38.0412 42.2257 36.3612 42.8825 34.3284 42.8825C32.2955 42.8749 30.6156 42.2104 29.2885 40.8892C27.9767 39.5603 27.3247 37.9335 27.3247 35.986ZM31.7432 38.6514C32.4336 39.3694 33.2928 39.7283 34.336 39.7359C35.3486 39.7359 36.2001 39.3846 36.9059 38.6667C37.6116 37.9183 37.9645 37.0323 37.9721 36.0089C37.9721 34.9855 37.6193 34.1073 36.9212 33.3741C36.2155 32.6562 35.364 32.2972 34.3514 32.2896C33.3081 32.2896 32.4413 32.6409 31.7509 33.3588C31.0605 34.0614 30.7153 34.9321 30.7153 35.986C30.7076 37.0323 31.0528 37.9183 31.7432 38.6514Z" fill="#2B2C2A"></path>
                    <path d="M54.4943 41.3631C53.428 42.3789 51.9552 42.8906 50.0835 42.883C48.2117 42.8753 46.7389 42.3636 45.6803 41.3326C44.614 40.3016 44.0847 38.8734 44.0924 37.0557L44.1077 29.5177L47.4983 29.5253L47.483 37.0633C47.483 37.8958 47.7131 38.5526 48.1733 39.049C48.6336 39.5455 49.278 39.7899 50.0911 39.7975C50.9119 39.7975 51.5486 39.5531 52.0165 39.0567C52.4845 38.5603 52.7146 37.9034 52.7146 37.071L52.73 29.533L56.1206 29.5406L56.1052 37.0786C56.0976 38.9192 55.5606 40.3397 54.4943 41.3631Z" fill="#2B2C2A"></path>
                    <path d="M67.1681 29.2366C69.0092 29.2443 70.5511 29.9087 71.7784 31.23C72.9905 32.5436 73.5965 34.1627 73.5965 36.0949C73.5888 38.0119 72.9675 39.631 71.7324 40.9446C70.4974 42.2659 68.9555 42.9227 67.1144 42.9227C65.4958 42.9227 64.1304 42.3117 63.0104 41.0974L62.9951 47.9633L59.6045 47.9556L59.6428 29.5574L63.0104 29.565L63.0104 31.1689C64.1304 29.8705 65.5189 29.229 67.1681 29.2366ZM66.5468 39.8296C67.6207 39.8296 68.4952 39.4782 69.1703 38.7603C69.8453 38.0424 70.1828 37.1565 70.1828 36.1102C70.1828 35.0563 69.853 34.1703 69.1779 33.4524C68.5106 32.7345 67.6361 32.3756 66.5621 32.3679C65.5035 32.3679 64.6367 32.7192 63.9616 33.4372C63.2866 34.1551 62.9491 35.041 62.9491 36.0873C62.9491 37.1412 63.2789 38.0272 63.954 38.7451C64.6213 39.4706 65.4882 39.8296 66.5468 39.8296Z" fill="#2B2C2A"></path>
                </svg>
