<svg viewBox="0 0 17 17" fill="none" xmlns="http://www.w3.org/2000/svg">
<path d="M10.0439 8.49962L16.6801 1.86386C17.1066 1.43737 17.1066 0.746358 16.6801 0.319868C16.2537 -0.106623 15.5627 -0.106623 15.1362 0.319868L8.5 6.95563L1.86378 0.319868C1.43731 -0.106623 0.746324 -0.106623 0.319853 0.319868C-0.106618 0.746358 -0.106618 1.43737 0.319853 1.86386L6.95608 8.49962L0.319853 15.1361C-0.106618 15.5626 -0.106618 16.2536 0.319853 16.6801C0.746324 17.1066 1.43731 17.1066 1.86378 16.6801L8.5 10.0436L15.1362 16.6801C15.3496 16.8936 15.6289 16.9999 15.9082 16.9999C16.1875 16.9999 16.4667 16.8932 16.6801 16.6801C17.1066 16.2536 17.1066 15.5626 16.6801 15.1361L10.0439 8.49962Z" fill="#8655CC"/>
</svg>
