<svg width="27" height="24" viewBox="0 0 27 24" fill="none" xmlns="http://www.w3.org/2000/svg">
<path id="Vector" d="M16.9984 1.52642L16.9981 1.52653C16.2087 1.86967 15.4941 2.36844 14.8961 2.99624L14.2465 2.37742L14.1084 2.47533L14.1079 2.47566L13.9651 2.57693L13.822 2.47461L13.0558 3.02345L13.1493 3.15524L13.9614 4.30088L14.7784 3.15873L14.8747 3.02414L14.8747 3.02416L14.88 3.01658C14.886 3.00806 14.8925 3.00013 14.8994 2.99282L14.2469 2.37714L14.7809 1.99861L14.6846 1.86279L14.6846 1.86279L14.6817 1.85877C14.676 1.85072 14.6701 1.84272 14.6643 1.83476C14.5991 1.89177 14.5348 1.94997 14.4716 2.00932C14.4651 2.01538 14.4587 2.02144 14.4522 2.02752C14.3566 2.11789 14.2631 2.21091 14.1721 2.30652L16.9984 1.52642ZM16.9984 1.52642C18.1957 1.00557 19.5194 0.867306 20.7947 1.12912C22.0702 1.39096 23.2397 2.04119 24.1472 2.99648L24.1482 2.99754C24.7396 3.61823 25.2073 4.35085 25.5246 5.15495L25.5247 5.15515C26.1626 6.77084 26.1626 8.57535 25.5247 10.191L25.5245 10.1915C25.2074 10.9959 24.7397 11.7287 24.1484 12.3497C24.1483 12.3498 24.1482 12.3499 24.1481 12.35L14.2299 22.7541C14.1952 22.7885 14.1552 22.8149 14.1124 22.8328C14.0681 22.8512 14.0213 22.8602 13.9745 22.8598V22.8597H13.9651C13.8489 22.8597 13.7562 22.8132 13.7039 22.7592C13.7036 22.7589 13.7033 22.7587 13.7031 22.7584L3.78276 12.3496C3.78253 12.3493 3.7823 12.3491 3.78208 12.3488C2.5928 11.0971 1.92612 9.421 1.92774 7.67403V7.6731C1.92774 5.9371 2.58343 4.25426 3.78158 2.99788L3.78238 2.99704C4.38411 2.3646 5.10382 1.86254 5.89825 1.51984C6.69247 1.17723 7.54569 1.00064 8.40738 1.00009L16.9984 1.52642ZM13.055 3.02225L13.053 3.01943L13.8218 2.47443L13.055 3.02225ZM13.055 3.02225C13.0491 3.0142 13.0428 3.00669 13.0361 2.99975L13.0326 2.99608L13.0326 2.99608C11.8324 1.73553 10.1727 1.00024 8.40793 1.00009L13.055 3.02225Z" stroke="#868687" stroke-width="2"/>
</svg>
