<svg viewBox="0 0 29 24" fill="none" xmlns="http://www.w3.org/2000/svg">
<path d="M10.5837 1C10.9116 1 11.1889 1.10188 11.3603 1.23322C11.526 1.36015 11.542 1.46653 11.542 1.5V22.5C11.542 22.5335 11.526 22.6399 11.3603 22.7668C11.1889 22.8981 10.9116 23 10.5837 23C10.2557 23 9.97845 22.8981 9.80699 22.7668C9.64127 22.6399 9.62533 22.5335 9.62533 22.5V1.5C9.62533 1.46653 9.64127 1.36015 9.80698 1.23322C9.97845 1.10188 10.2557 1 10.5837 1ZM18.417 10C18.7449 10 19.0222 10.1019 19.1937 10.2332C19.3594 10.3601 19.3753 10.4665 19.3753 10.5V22.5C19.3753 22.5335 19.3594 22.6399 19.1937 22.7668C19.0222 22.8981 18.7449 23 18.417 23C18.0891 23 17.8118 22.8981 17.6403 22.7668C17.4746 22.6399 17.4587 22.5335 17.4587 22.5V10.5C17.4587 10.4665 17.4746 10.3601 17.6403 10.2332C17.8118 10.1019 18.0891 10 18.417 10ZM26.2503 5.5C26.5782 5.5 26.8555 5.60188 27.027 5.73322C27.1927 5.86014 27.2087 5.96653 27.2087 6V22.5C27.2087 22.5335 27.1927 22.6399 27.027 22.7668C26.8555 22.8981 26.5783 23 26.2503 23C25.9224 23 25.6451 22.8981 25.4736 22.7668C25.3079 22.6399 25.292 22.5335 25.292 22.5V6C25.292 5.96652 25.3079 5.86014 25.4736 5.73322C25.6451 5.60188 25.9224 5.5 26.2503 5.5ZM2.75033 16C3.07825 16 3.35553 16.1019 3.527 16.2332C3.69271 16.3601 3.70866 16.4665 3.70866 16.5V22.5C3.70866 22.5335 3.69271 22.6399 3.527 22.7668C3.35553 22.8981 3.07825 23 2.75033 23C2.4224 23 2.14512 22.8981 1.97365 22.7668C1.80794 22.6399 1.79199 22.5335 1.79199 22.5V16.5C1.79199 16.4665 1.80794 16.3601 1.97365 16.2332C2.14512 16.1019 2.4224 16 2.75033 16Z" stroke="#868687" stroke-width="2"/>
</svg>
