<svg xmlns="http://www.w3.org/2000/svg" width="23" height="23" viewBox="0 0 23 23" fill="none">
	<mask id="path-1-inside-1_302_21718" fill="white">
		<path fill-rule="evenodd" clip-rule="evenodd" d="M11.5002 11.5002C14.6759 11.5002 17.2503 8.92578 17.2503 5.75009C17.2503 2.5744 14.6759 0 11.5002 0C8.32451 0 5.7501 2.5744 5.7501 5.75009C5.7501 8.92578 8.32451 11.5002 11.5002 11.5002ZM2.87505 14.3752L0 23.0002H23.0004L20.1253 14.3752H11.5002H2.87505Z"/>
	</mask>
	<path d="M0 23.0002L-1.89736 22.3677L-2.77487 25.0002H0V23.0002ZM2.87505 14.3752V12.3752H1.43354L0.977684 13.7427L2.87505 14.3752ZM23.0004 23.0002V25.0002H25.7752L24.8977 22.3677L23.0004 23.0002ZM20.1253 14.3752L22.0227 13.7427L21.5668 12.3752H20.1253V14.3752ZM15.2503 5.75009C15.2503 7.82121 13.5713 9.50019 11.5002 9.50019V13.5002C15.7805 13.5002 19.2503 10.0304 19.2503 5.75009H15.2503ZM11.5002 2C13.5713 2 15.2503 3.67897 15.2503 5.75009H19.2503C19.2503 1.46983 15.7805 -2 11.5002 -2V2ZM7.7501 5.75009C7.7501 3.67897 9.42908 2 11.5002 2V-2C7.21994 -2 3.7501 1.46983 3.7501 5.75009H7.7501ZM11.5002 9.50019C9.42908 9.50019 7.7501 7.82121 7.7501 5.75009H3.7501C3.7501 10.0304 7.21994 13.5002 11.5002 13.5002V9.50019ZM1.89736 23.6326L4.77241 15.0077L0.977684 13.7427L-1.89736 22.3677L1.89736 23.6326ZM23.0004 21.0002H0V25.0002H23.0004V21.0002ZM18.228 15.0077L21.103 23.6326L24.8977 22.3677L22.0227 13.7427L18.228 15.0077ZM11.5002 16.3752H20.1253V12.3752H11.5002V16.3752ZM2.87505 16.3752H11.5002V12.3752H2.87505V16.3752Z" fill="#868687" mask="url(#path-1-inside-1_302_21718)"/>
</svg>
